<svg width="284" height="247" viewBox="0 0 284 247" fill="none" xmlns="http://www.w3.org/2000/svg">
<g clip-path="url(#clip0_6_747)">
<path d="M168.818 112.941L194.181 146.274H211.09C220.475 146.274 227.999 153.691 227.999 162.941V187.941H211.09C211.09 194.571 208.418 200.93 203.662 205.619C198.905 210.307 192.454 212.941 185.727 212.941C179 212.941 172.549 210.307 167.792 205.619C163.035 200.93 160.363 194.571 160.363 187.941H109.636C109.636 194.571 106.964 200.93 102.207 205.619C97.4504 210.307 90.9991 212.941 84.2722 212.941C77.5454 212.941 71.094 210.307 66.3374 205.619C61.5808 200.93 58.9086 194.571 58.9086 187.941H41.9995V162.941C41.9995 153.691 49.5241 146.274 58.9086 146.274L84.2722 112.941H168.818ZM122.318 125.441H90.6131L74.6341 146.274H122.318V125.441ZM135 125.441V146.274H178.456L162.477 125.441H135ZM84.2722 175.441C80.9088 175.441 77.6831 176.758 75.3048 179.102C72.9265 181.446 71.5904 184.626 71.5904 187.941C71.5904 191.256 72.9265 194.436 75.3048 196.78C77.6831 199.124 80.9088 200.441 84.2722 200.441C87.6357 200.441 90.8613 199.124 93.2396 196.78C95.6179 194.436 96.9541 191.256 96.9541 187.941C96.9541 184.626 95.6179 181.446 93.2396 179.102C90.8613 176.758 87.6357 175.441 84.2722 175.441ZM185.727 175.441C182.363 175.441 179.138 176.758 176.759 179.102C174.381 181.446 173.045 184.626 173.045 187.941C173.045 191.256 174.381 194.436 176.759 196.78C179.138 199.124 182.363 200.441 185.727 200.441C189.09 200.441 192.316 199.124 194.694 196.78C197.072 194.436 198.409 191.256 198.409 187.941C198.409 184.626 197.072 181.446 194.694 179.102C192.316 176.758 189.09 175.441 185.727 175.441Z" fill="#3B8BBA"/>
<g opacity="0.6" clip-path="url(#clip1_6_747)">
<path d="M47.4534 116.911C45.3336 115.623 43.183 113.764 41.0015 111.336C38.8201 108.907 36.8439 106.284 35.0731 103.466C32.1512 98.8171 30.2546 94.6529 29.3835 90.9737C28.5124 87.2945 28.3915 84.0792 29.0207 81.328L20.1664 67.2397L19.7651 47.8388L25.4004 44.2971L42.7077 53.0728L51.562 67.1611C54.3621 67.7597 57.2195 69.2564 60.1344 71.6511C63.0493 74.0459 65.9661 77.5675 68.885 82.216C70.6559 85.0336 72.1624 87.9519 73.4046 90.9708C74.6468 93.9896 75.3886 96.7334 75.63 99.2022C73.2739 99.8313 71.0001 99.7052 68.8084 98.8238C66.6167 97.9424 64.8944 96.4529 63.6416 94.3553C62.9037 93.1812 62.2365 91.8318 61.6398 90.307C61.0431 88.7822 60.3158 87.3395 59.458 85.9788C57.7462 83.2551 55.2057 80.8556 51.8366 78.7804C48.4675 76.7052 44.6191 75.1932 40.2914 74.2446C39.3144 78.5272 39.0189 82.6435 39.4051 86.5934C39.7913 90.5434 40.8403 93.8802 42.5521 96.604C43.408 97.9658 44.4048 99.2392 45.5425 100.424C46.6802 101.609 47.6414 102.773 48.4262 103.918C49.7249 105.984 50.2924 108.215 50.1288 110.611C49.9653 113.006 49.0734 115.106 47.4534 116.911ZM34.9788 65.7916C34.1805 66.2933 33.3417 66.4431 32.4626 66.2409C31.5835 66.0388 30.8927 65.5401 30.3903 64.7448C30.0656 64.2282 29.8879 63.6848 29.857 63.1146C29.8262 62.5444 29.9718 61.9943 30.2939 61.4643L26.5308 55.4768L26.7757 65.2477L31.1143 72.151L42.385 65.0675L38.0464 58.1643L29.3485 53.706L33.1115 59.6935C33.7287 59.6331 34.2875 59.7405 34.788 60.0156C35.2884 60.2907 35.7009 60.6865 36.0256 61.2031C36.5273 62.0014 36.6771 62.8401 36.475 63.7192C36.2728 64.5984 35.7741 65.2891 34.9788 65.7916Z" fill="#3B8BBA"/>
</g>
<g opacity="0.6" clip-path="url(#clip2_6_747)">
<path d="M236.389 56.7683C236.733 56.41 236.957 55.9536 237.03 55.4624C237.103 54.9712 237.022 54.4693 236.797 54.0263L236.278 53.1099C234.377 50.0664 231.816 47.4887 228.786 45.5673C223.285 42.12 215.097 40.3164 204.056 45.3063L199.462 43.2097C199.175 43.0789 198.865 43.006 198.55 42.9952C198.235 42.9843 197.921 43.0357 197.626 43.1464L189.46 46.1985C188.867 46.4212 188.385 46.8702 188.122 47.4471C187.859 48.024 187.835 48.6817 188.056 49.2761L194.133 65.6323C194.243 65.9277 194.41 66.1984 194.625 66.4292C194.839 66.6599 195.098 66.846 195.384 66.9768C195.671 67.1076 195.981 67.1806 196.296 67.1915C196.61 67.2025 196.924 67.1512 197.22 67.0406L205.391 63.9754C205.985 63.7528 206.467 63.3039 206.73 62.727L208.001 59.9415L226.911 115.303C226.982 115.64 227.125 115.959 227.33 116.236C227.536 116.513 227.798 116.743 228.1 116.909C228.403 117.075 228.737 117.175 229.081 117.2C229.425 117.225 229.77 117.176 230.094 117.055L239.616 113.5C240.192 113.285 240.663 112.857 240.932 112.304C241.2 111.751 241.247 111.116 241.061 110.53L218.432 54.7525C222.596 54.2506 227.826 54.6199 233.667 57.2853C234.118 57.4917 234.622 57.5528 235.11 57.4602C235.598 57.3675 236.044 57.1258 236.389 56.7683Z" fill="#3B8BBA"/>
</g>
<g opacity="0.6">
<path d="M157.14 59.0792C154.686 61.7627 151.491 63.6575 147.959 64.5235C144.427 65.3895 140.717 65.1879 137.3 63.9442L116.562 91.2474C112.732 95.4225 106.263 95.7012 102.088 91.871C97.913 88.0408 97.6343 81.5719 101.466 77.4372L126.883 54.388C123.846 47.8354 124.839 39.8534 130.023 34.2023C134.976 28.8042 142.356 27.109 148.922 29.0944L137.741 41.2824L149.634 52.1926L160.697 40.0908C163.115 46.3865 162.015 53.7655 157.14 59.0792ZM106.228 87.3585C107.913 88.8657 110.501 88.7542 112.009 87.1094C113.557 85.4225 113.446 82.835 111.76 81.3278C110.114 79.7785 107.526 79.89 105.979 81.5769C105.254 82.3808 104.874 83.4373 104.92 84.5187C104.967 85.6001 105.437 86.62 106.228 87.3585Z" fill="#3B8BBA"/>
</g>
</g>
<defs>
<clipPath id="clip0_6_747">
<rect width="284" height="246" fill="white" transform="translate(0.000488281 0.936462)"/>
</clipPath>
<clipPath id="clip1_6_747">
<rect width="79.8704" height="79.8704" fill="white" transform="translate(-13 64.5006) rotate(-32.1488)"/>
</clipPath>
<clipPath id="clip2_6_747">
<rect width="76.6642" height="76.6642" fill="white" transform="translate(197.908 26) rotate(24.5279)"/>
</clipPath>
</defs>
</svg>
