<svg width="292" height="257" viewBox="0 0 292 257" fill="none" xmlns="http://www.w3.org/2000/svg">
<g clip-path="url(#clip0_6_717)">
<g opacity="0.6">
<path d="M204.646 147.386C204.71 146.422 204.903 145.457 204.903 144.493V147.708L204.646 147.386ZM140.574 144.493C140.574 149.058 141.539 153.431 143.276 157.354H108.409V163.784C108.409 167.321 105.514 170.215 101.976 170.215H95.5433C92.0052 170.215 89.1104 167.321 89.1104 163.784V112.34L102.491 73.7561C103.777 70.0264 107.38 67.3255 111.626 67.3255H182.388C186.634 67.3255 190.236 70.0264 191.523 73.7561L204.903 112.34V144.493C204.903 126.744 190.494 112.34 172.739 112.34C154.984 112.34 140.574 126.744 140.574 144.493ZM121.275 128.416C121.275 123.079 116.965 118.77 111.626 118.77C106.286 118.77 101.976 123.079 101.976 128.416C101.976 133.754 106.286 138.062 111.626 138.062C116.965 138.062 121.275 133.754 121.275 128.416ZM192.038 105.909L182.388 76.9714H111.626L101.976 105.909H192.038ZM216.933 177.867L190.494 151.438C193.131 144.75 191.652 136.905 186.119 131.439C180.33 125.587 171.645 124.429 164.633 127.644L160.097 130.513L155.627 136.326C152.153 143.335 153.762 152.016 159.423 157.868C161.977 160.474 165.238 162.276 168.804 163.052C172.37 163.829 176.086 163.547 179.493 162.241L205.933 188.607C207.091 189.828 208.828 189.828 209.985 188.607L216.676 181.983C218.091 180.825 218.091 178.768 216.933 177.867Z" fill="#3B8BBA"/>
<g clip-path="url(#clip1_6_717)">
<path d="M177.239 116.896C178.048 116.928 178.751 117.46 178.994 118.224L180.722 123.68C181.411 123.881 182.001 124.078 182.5 124.279C183.045 124.499 183.745 124.827 184.609 125.271L189.225 123.059C189.601 122.878 190.027 122.824 190.437 122.905C190.847 122.986 191.219 123.198 191.498 123.509L195.312 127.776C195.819 128.344 195.935 129.15 195.611 129.837L193.294 134.72C193.62 135.38 193.879 135.944 194.075 136.414C194.286 136.926 194.545 137.63 194.85 138.537L199.708 140.85C200.438 141.195 200.868 141.956 200.787 142.748L200.198 148.438C200.159 148.808 200.012 149.157 199.775 149.444C199.539 149.731 199.223 149.942 198.868 150.051L194.121 151.529C193.961 152.17 193.799 152.717 193.632 153.178C193.364 153.89 193.062 154.59 192.728 155.273L194.874 160.562C195.025 160.934 195.054 161.344 194.955 161.733C194.856 162.122 194.636 162.469 194.325 162.724L189.696 166.538C189.391 166.789 189.017 166.94 188.624 166.971C188.231 167.003 187.837 166.914 187.496 166.716L182.984 164.092C182.248 164.445 181.49 164.753 180.716 165.013L178.673 165.687L176.69 170.564C176.543 170.921 176.292 171.226 175.969 171.438C175.646 171.649 175.266 171.759 174.88 171.751L169.65 171.662C169.254 171.657 168.869 171.529 168.548 171.296C168.227 171.063 167.987 170.736 167.859 170.361L165.973 164.705C165.264 164.431 164.563 164.137 163.871 163.823C163.305 163.552 162.749 163.261 162.203 162.951L156.89 164.976C156.54 165.109 156.159 165.138 155.793 165.059C155.426 164.979 155.091 164.795 154.828 164.528L151.105 160.75C150.828 160.469 150.646 160.109 150.585 159.72C150.523 159.331 150.586 158.932 150.764 158.58L153.205 153.776C152.929 153.184 152.675 152.583 152.444 151.973C152.176 151.226 151.93 150.472 151.708 149.711L146.844 148.018C146.449 147.881 146.11 147.617 145.88 147.268C145.649 146.919 145.541 146.504 145.571 146.087L145.973 140.813C146 140.469 146.121 140.139 146.322 139.859C146.524 139.579 146.798 139.359 147.115 139.223L152.378 136.948C152.652 136.08 152.888 135.407 153.092 134.917C153.378 134.262 153.692 133.621 154.033 132.993L151.982 128.177C151.826 127.811 151.79 127.405 151.88 127.018C151.97 126.63 152.18 126.282 152.48 126.021L156.486 122.529C156.766 122.284 157.112 122.126 157.48 122.073C157.849 122.02 158.225 122.075 158.563 122.231L163.697 124.593C164.29 124.231 164.825 123.941 165.308 123.709C165.883 123.432 166.649 123.148 167.611 122.848L169.627 117.859C169.776 117.494 170.034 117.183 170.365 116.97C170.697 116.757 171.087 116.652 171.481 116.668L177.239 116.896ZM173.577 136.077C168.993 135.895 165.132 139.418 164.953 143.949C164.773 148.479 168.343 152.299 172.927 152.48C177.509 152.661 181.37 149.136 181.549 144.605C181.728 140.075 178.161 136.258 173.577 136.077Z" fill="#2D6E93"/>
</g>
</g>
<path d="M116.373 258.713V261.531H35.3179V258.713C35.3179 251.72 39.4411 246.568 45.7758 243.019C53.617 238.615 64.8501 236.66 75.8455 236.642C86.8408 236.625 98.0035 238.835 105.818 243.283C112.223 246.92 116.373 252.064 116.373 258.713Z" fill="#2D6E93"/>
<path d="M75.8454 233.674H67.8456V242.464C67.8456 246.436 71.1054 249.659 75.1229 249.659H76.5766C80.5942 249.659 83.854 246.436 83.854 242.464V233.674H75.8454Z" fill="#CE9D82"/>
<path d="M123.597 244.49L120.038 261.531H133.324V258.713C133.333 252.768 129.571 248.021 123.597 244.49Z" fill="#1B2B8F"/>
<path d="M84.0478 244.41H66.5153L73.4754 261.531H77.9158L84.0478 244.41Z" fill="#F5F5F5"/>
<path d="M67.8104 236.845L60.956 237.638L53.9077 252.83L63.4934 249.052L71.9073 261.531H74.3037L67.8104 236.845Z" fill="#89CEF6"/>
<path d="M90.7437 237.638L83.8804 236.845L77.396 261.531H80.0391L88.8935 249.201L97.792 252.83L90.7437 237.638Z" fill="#89CEF6"/>
<path d="M139.121 202.303C138.822 201.775 138.311 201.528 137.809 201.528C137.139 201.528 136.487 201.96 136.337 202.744L135.051 209.701C134.963 210.168 134.663 210.573 134.232 210.776L127.113 214.184C126.829 214.324 126.508 214.368 126.197 214.311C125.886 214.254 125.602 214.098 125.386 213.867L119.959 208.143C119.633 207.799 119.492 207.315 119.571 206.848L120.857 199.89C121.042 198.886 120.25 198.129 119.377 198.129C119.051 198.129 118.717 198.235 118.417 198.481C115.818 200.639 113.906 203.739 113.228 207.394C112.267 212.59 114.029 217.619 117.474 220.895C119.025 222.375 119.765 224.506 119.377 226.611L112.919 261.54H122.012L128.17 228.232C128.558 226.127 130.011 224.401 131.985 223.573C136.372 221.741 139.817 217.681 140.778 212.476C141.456 208.821 140.778 205.236 139.121 202.303Z" fill="#2D6E93"/>
<path d="M115.052 255.675L113.378 257.568C113.378 257.568 108.373 256.502 108.964 253.605C109.105 252.918 110.338 251.456 110.338 251.456C110.338 251.456 107.827 249.386 108.223 247.986C108.62 246.603 111.016 245.529 111.016 245.529C111.016 245.529 109.157 244.419 109.889 242.332C110.391 240.905 112.999 240.429 112.999 240.429C112.999 240.429 110.567 236.863 115.51 236.052C117.069 235.797 120.567 236.317 123.703 238.633C126.84 240.949 128.276 242.341 129.721 245.388C131.923 250.012 128.029 257.938 125.042 258.008C122.558 258.061 115.052 255.675 115.052 255.675Z" fill="#CE9D82"/>
<path d="M99.8712 196.596H51.7138C46.5245 196.596 42.278 201.114 42.278 206.645C42.278 212.176 46.5245 216.694 51.7138 216.694H99.8712C105.06 216.694 109.307 212.167 109.307 206.645C109.307 201.123 105.06 196.596 99.8712 196.596Z" fill="#CE9D82"/>
<path d="M75.7925 161.923C60.4625 161.923 46.2603 178.313 46.2603 201.907C46.2603 225.369 60.8942 236.968 75.7925 236.968C90.6908 236.968 105.325 225.369 105.325 201.907C105.325 178.313 91.1225 161.923 75.7925 161.923Z" fill="#CE9D82"/>
<path d="M61.8634 208.46C64.2622 208.46 66.2069 206.449 66.2069 203.968C66.2069 201.487 64.2622 199.476 61.8634 199.476C59.4645 199.476 57.5199 201.487 57.5199 203.968C57.5199 206.449 59.4645 208.46 61.8634 208.46Z" fill="#251D1A"/>
<path d="M89.3076 208.46C91.7065 208.46 93.6511 206.449 93.6511 203.968C93.6511 201.487 91.7065 199.476 89.3076 199.476C86.9088 199.476 84.9641 201.487 84.9641 203.968C84.9641 206.449 86.9088 208.46 89.3076 208.46Z" fill="#251D1A"/>
<path d="M54.6389 196.852C54.6389 196.852 54.7534 196.685 54.9737 196.403C55.0353 196.332 55.0794 196.262 55.1675 196.174C55.2644 196.077 55.3701 195.98 55.4847 195.883C55.608 195.777 55.7314 195.672 55.8635 195.548C55.9957 195.434 56.1366 195.355 56.2864 195.24C56.4362 195.134 56.586 195.029 56.7534 194.932C56.9208 194.844 57.1058 194.747 57.282 194.65C57.467 194.544 57.6608 194.465 57.8635 194.386C58.0661 194.307 58.2775 194.227 58.489 194.148C58.9207 194.025 59.37 193.893 59.8458 193.831C60.3127 193.743 60.7973 193.734 61.2731 193.708C61.7576 193.734 62.2422 193.734 62.7003 193.831C63.1673 193.884 63.6254 194.025 64.0571 194.148C64.2686 194.219 64.48 194.298 64.6827 194.386C64.8853 194.465 65.0791 194.544 65.2641 194.65C65.4492 194.747 65.6254 194.844 65.7928 194.932C65.9602 195.029 66.1187 195.143 66.2597 195.24C66.4095 195.346 66.5505 195.434 66.6738 195.54C66.7971 195.645 66.9117 195.751 67.0262 195.848C67.1319 195.945 67.2377 196.033 67.3258 196.121C67.4139 196.209 67.4844 196.306 67.5548 196.376C67.828 196.693 67.9601 196.887 67.9601 196.887C68.4094 197.504 68.2685 198.375 67.6429 198.816C67.2641 199.089 66.7971 199.142 66.3831 199.001L66.1276 198.913C66.1276 198.913 65.9602 198.851 65.6959 198.737C65.6254 198.71 65.5637 198.675 65.4756 198.64C65.3875 198.613 65.3082 198.578 65.2113 198.543C65.0263 198.472 64.8236 198.393 64.5946 198.331C64.48 198.296 64.3655 198.252 64.2421 198.217C64.1188 198.191 63.9955 198.155 63.8633 198.12L63.6695 198.067C63.599 198.058 63.5373 198.041 63.4668 198.032C63.3259 198.006 63.1937 197.97 63.0528 197.944C62.762 197.909 62.4713 197.847 62.1717 197.838C61.8722 197.803 61.5638 197.812 61.2643 197.794C60.9559 197.812 60.6563 197.803 60.3568 197.838C60.0572 197.856 59.7665 197.918 59.4758 197.944C59.3348 197.97 59.1938 198.006 59.0617 198.032C58.9912 198.041 58.9207 198.058 58.859 198.067L58.6652 198.12C58.533 198.155 58.4097 198.182 58.2864 198.217C58.163 198.252 58.0485 198.296 57.9339 198.331C57.8194 198.367 57.7137 198.402 57.608 198.428C57.5199 198.464 57.4318 198.49 57.3525 198.516L57.1146 198.596C57.0265 198.631 56.9384 198.684 56.8591 198.719C56.5419 198.877 56.3569 198.957 56.3569 198.957C55.6256 199.256 54.7975 198.913 54.4979 198.191C54.3129 197.741 54.3834 197.239 54.6389 196.852ZM95.2193 198.966C95.2193 198.966 95.0343 198.886 94.7171 198.728C94.6378 198.693 94.5497 198.64 94.4616 198.604C94.3823 198.587 94.303 198.552 94.2237 198.525C94.1445 198.499 94.0564 198.464 93.9682 198.437C93.8625 198.402 93.7568 198.375 93.6423 198.34C93.5277 198.305 93.4132 198.261 93.2987 198.226C93.1753 198.199 93.052 198.164 92.9198 198.129L92.726 198.076C92.6555 198.067 92.5938 198.05 92.5233 198.041C92.3824 198.014 92.2502 197.979 92.1093 197.953C91.8185 197.918 91.5278 197.856 91.2282 197.847C90.9287 197.812 90.6203 197.821 90.3208 197.803C90.0124 197.821 89.7129 197.812 89.4133 197.847C89.1138 197.865 88.823 197.926 88.5323 197.953C88.3913 197.979 88.2503 198.014 88.1182 198.041C88.0477 198.05 87.9772 198.067 87.9155 198.076L87.7217 198.129C87.5896 198.164 87.4662 198.199 87.3429 198.226C87.2195 198.261 87.105 198.305 86.9905 198.34C86.7614 198.402 86.5588 198.481 86.3737 198.552C86.2856 198.587 86.1975 198.622 86.1094 198.648C86.0301 198.684 85.9596 198.719 85.8892 198.745C85.6249 198.86 85.4575 198.922 85.4575 198.922L85.2108 199.01C84.4883 199.265 83.6954 198.877 83.4487 198.155C83.2989 197.715 83.3782 197.248 83.6337 196.887C83.6337 196.887 83.7659 196.693 84.039 196.376C84.1095 196.297 84.18 196.209 84.2681 196.121C84.3562 196.033 84.4619 195.945 84.5676 195.848C84.6733 195.751 84.7967 195.645 84.92 195.54C85.0434 195.434 85.1931 195.346 85.3341 195.24C85.4839 195.134 85.6337 195.029 85.8011 194.932C85.9685 194.844 86.1535 194.747 86.3297 194.65C86.5147 194.544 86.7085 194.465 86.9112 194.386C87.1138 194.307 87.3252 194.227 87.5367 194.148C87.9684 194.025 88.4177 193.893 88.8935 193.831C89.3604 193.743 89.845 193.734 90.3208 193.708C90.8053 193.734 91.2899 193.734 91.748 193.831C92.2238 193.884 92.6731 194.025 93.1048 194.148C93.3163 194.219 93.5277 194.298 93.7304 194.386C93.933 194.465 94.1268 194.544 94.3119 194.65C94.4969 194.747 94.6731 194.844 94.8405 194.932C95.0079 195.029 95.1576 195.143 95.3074 195.24C95.4572 195.346 95.5894 195.434 95.7303 195.548C95.8625 195.663 95.9946 195.777 96.1092 195.883C96.2237 195.989 96.3382 196.086 96.4263 196.174C96.5056 196.262 96.5585 196.332 96.6202 196.403C96.8404 196.676 96.955 196.852 96.955 196.852C97.3955 197.504 97.2281 198.384 96.5761 198.833C96.162 199.106 95.651 199.142 95.2193 198.966Z" fill="#251D1A"/>
<path d="M79.1933 212.115C79.0964 212.079 79.0083 212.053 78.9114 212.044H72.6737C72.5767 212.053 72.4798 212.079 72.3917 212.115C71.8279 212.344 71.5195 212.925 71.7838 213.55C72.0481 214.175 73.2904 215.919 75.7925 215.919C78.2947 215.919 79.5369 214.167 79.8012 213.55C80.0655 212.934 79.7572 212.344 79.1933 212.115Z" fill="#875334"/>
<path d="M83.3078 219.24C80.4973 220.904 71.2993 220.904 68.4976 219.24C66.8854 218.28 65.2378 219.75 65.9074 221.212C66.5682 222.648 71.5813 225.986 75.9248 225.986C80.2683 225.986 85.2197 222.648 85.8805 221.212C86.5412 219.742 84.9201 218.28 83.3078 219.24Z" fill="#473530"/>
<path d="M75.8101 156.366H75.7749C35.7495 156.577 43.9431 202.286 43.9431 202.286C43.9431 202.286 45.7404 206.998 46.5598 209.076C46.6743 209.376 47.1148 209.34 47.1853 209.032C48.0399 205.21 51.1147 191.656 52.6654 187.543C53.1093 186.367 53.9528 185.385 55.048 184.768C56.1433 184.152 57.4206 183.94 58.6564 184.17C62.577 184.883 68.8323 185.764 75.722 185.764H75.863C82.7615 185.764 89.008 184.883 92.9286 184.17C95.4836 183.703 98.0034 185.121 98.9109 187.543C100.453 191.647 103.51 205.122 104.373 208.997C104.444 209.314 104.884 209.34 104.999 209.041L107.624 202.286C107.642 202.286 115.844 156.577 75.8101 156.366Z" fill="#3C2C23"/>
<path d="M107.642 202.286C107.642 202.286 115.844 156.577 75.8102 156.366H75.775C75.1494 156.366 74.5415 156.383 73.9424 156.41C72.753 156.462 71.5989 156.55 70.4887 156.683H70.4535C70.3742 156.691 70.3037 156.709 70.2244 156.718C36.5337 160.954 43.9432 202.286 43.9432 202.286L46.5687 209.05C46.6832 209.349 47.1149 209.323 47.1854 209.006C48.0488 205.139 51.1148 191.647 52.6654 187.543C53.1094 186.367 53.9528 185.385 55.0481 184.768C56.1433 184.152 57.4206 183.94 58.6565 184.17C62.5771 184.883 68.8324 185.764 75.7221 185.764H75.8631C82.7616 185.764 89.0081 184.883 92.9287 184.17C95.4837 183.703 98.0035 185.121 98.9109 187.543C100.462 191.664 103.536 205.245 104.382 209.05C104.453 209.367 104.884 209.393 104.999 209.094C105.836 207.015 107.642 202.286 107.642 202.286Z" fill="url(#paint0_radial_6_717)"/>
<path d="M75.6075 156.366C95.6951 156.366 107.712 167.894 108.444 191.788C108.444 191.788 99.8536 184.724 76.0481 184.724C50.2778 184.724 43.2207 192.246 43.2471 191.418C44.1546 167.401 55.8371 156.366 76.0481 156.366H75.6075Z" fill="#2D6E93"/>
<path d="M55.52 182.664C55.52 166.159 63.4229 157.29 75.6076 157.29C87.7923 157.29 95.6952 166.511 95.6952 182.664C95.6952 195.786 86.1976 185.455 75.6076 185.455C65.0176 185.455 55.52 195.795 55.52 182.664Z" fill="#2D6E93"/>
<path d="M75.916 177.406C56.7358 177.406 47.5378 187.877 47.5378 187.877C47.5202 189.612 49.4761 192.739 53.9253 193.452C60.0485 194.439 64.0044 189.489 75.819 189.489H75.8807V189.463L75.916 189.489H75.9776C87.7923 189.489 91.7393 194.43 97.8713 193.452C102.321 192.739 103.942 190.062 103.924 188.335C103.924 188.335 95.3252 177.406 75.916 177.406Z" fill="#89CEF6"/>
</g>
<defs>
<radialGradient id="paint0_radial_6_717" cx="0" cy="0" r="1" gradientUnits="userSpaceOnUse" gradientTransform="translate(75.7935 194.294) scale(33.5613 37.8499)">
<stop offset="0.794" stop-color="#554138" stop-opacity="0"/>
<stop offset="1" stop-color="#554138"/>
</radialGradient>
<clipPath id="clip0_6_717">
<rect width="292" height="257" fill="white"/>
</clipPath>
<clipPath id="clip1_6_717">
<rect width="55.0437" height="55.0235" fill="white" transform="translate(145.664 116.757)"/>
</clipPath>
</defs>
</svg>
